HIERARCHY
ROOT SpineBase
{
  OFFSET 0.000000 0.000000 0.000000
  CHANNELS 6 Xposition Yposition Zposition Zrotation Xrotation Yrotation
  JOINT SpineMid
  {
    OFFSET 0.000000 28.429871 0.000000
    CHANNELS 3 Zrotation Xrotation Yrotation
    JOINT SpineShoulder
    {
      OFFSET 0.091917 21.143610 -0.802623
      CHANNELS 3 Zrotation Xrotation Yrotation
      JOINT Neck
      {
        OFFSET 0.054372 7.001845 -0.594592
        CHANNELS 3 Zrotation Xrotation Yrotation
        JOINT Head
        {
          OFFSET -1.192583 14.501615 -1.846528
          CHANNELS 3 Zrotation Xrotation Yrotation
          End Site
          {
            OFFSET 0 0 0
          }
        }
      }
      JOINT ShoulderLeft
      {
        OFFSET -16.391588 -3.078900 -3.620608
        CHANNELS 3 Zrotation Xrotation Yrotation
        JOINT ElbowLeft
        {
          OFFSET -1.017060 -21.648131 -2.567707
          CHANNELS 3 Zrotation Xrotation Yrotation
          JOINT WristLeft
          {
            OFFSET 9.444515 -18.516161 -7.747098
            CHANNELS 3 Zrotation Xrotation Yrotation
            JOINT HandLeft
            {
              OFFSET 3.562125 -3.647346 -0.849009
              CHANNELS 3 Zrotation Xrotation Yrotation
              JOINT HandTipLeft
              {
                OFFSET 3.558679 -6.597668 -3.205778
                CHANNELS 3 Zrotation Xrotation Yrotation
                End Site
                {
                  OFFSET 0 0 0
                }
              }
              JOINT ThumbLeft
              {
                OFFSET 2.779112 0.728060 -1.918447
                CHANNELS 3 Zrotation Xrotation Yrotation
                End Site
                {
                  OFFSET 0 0 0
                }
              }
            }
          }
        }
      }
      JOINT ShoulderRight
      {
        OFFSET 16.863043 -2.700822 0.135777
        CHANNELS 3 Zrotation Xrotation Yrotation
        JOINT ElbowRight
        {
          OFFSET 3.083435 -26.409689 -0.343409
          CHANNELS 3 Zrotation Xrotation Yrotation
          JOINT WristRight
          {
            OFFSET 0.763687 -18.985085 -8.187717
            CHANNELS 3 Zrotation Xrotation Yrotation
            JOINT HandRight
            {
              OFFSET -1.165594 -2.188407 -2.816306
              CHANNELS 3 Zrotation Xrotation Yrotation
              JOINT HandTipRight
              {
                OFFSET 1.286589 -7.445250 -4.680316
                CHANNELS 3 Zrotation Xrotation Yrotation
                End Site
                {
                  OFFSET 0 0 0
                }
              }
              JOINT ThumbRight
              {
                OFFSET -1.012884 0.518588 -3.971100
                CHANNELS 3 Zrotation Xrotation Yrotation
                End Site
                {
                  OFFSET 0 0 0
                }
              }
            }
          }
        }
      }
    }
  }
  JOINT HipLeft
  {
    OFFSET -6.883695 0.227710 -4.005569
    CHANNELS 3 Zrotation Xrotation Yrotation
    JOINT KneeLeft
    {
      OFFSET -4.307150 -29.091054 3.573430
      CHANNELS 3 Zrotation Xrotation Yrotation
      JOINT AnkleLeft
      {
        OFFSET -0.850175 -30.476775 6.982635
        CHANNELS 3 Zrotation Xrotation Yrotation
        JOINT FootLeft
        {
          OFFSET -2.359920 -8.058332 -4.929678
          CHANNELS 3 Zrotation Xrotation Yrotation
          End Site
          {
            OFFSET 0 0 0
          }
        }
      }
    }
  }
  JOINT HipRight
  {
    OFFSET 7.234791 1.244621 -2.961757
    CHANNELS 3 Zrotation Xrotation Yrotation
    JOINT KneeRight
    {
      OFFSET 6.430386 -22.703081 -17.691919
      CHANNELS 3 Zrotation Xrotation Yrotation
      JOINT AnkleRight
      {
        OFFSET -2.610401 -28.760561 23.051207
        CHANNELS 3 Zrotation Xrotation Yrotation
        JOINT FootRight
        {
          OFFSET 1.308896 -3.784269 -13.201205
          CHANNELS 3 Zrotation Xrotation Yrotation
          End Site
          {
            OFFSET 0 0 0
          }
        }
      }
    }
  }
}
MOTION
Frames: 14
Frame Time: 0.033333
-19.244919 70.662925 364.308746 -0.000000 0.000000 -4.228318 -0.000000 0.000000 4.228318 -0.000000 0.000000 0.000000 -0.000000 0.000000 0.000000 0.000000 0.000000 0.000000 -0.000000 0.000000 0.000000 -0.000000 0.000000 0.000000 -0.000000 0.000000 0.000000 -0.000000 0.000000 0.000000 0.000000 0.000000 0.000000 0.000000 0.000000 0.000000 -0.000000 0.000000 0.000000 -0.000000 0.000000 0.000000 -0.000000 0.000000 0.000000 -0.000000 0.000000 0.000000 0.000000 0.000000 0.000000 0.000000 0.000000 0.000000 -0.000000 0.000000 4.228318 -0.000000 0.000000 0.000000 -0.000000 0.000000 0.000000 0.000000 0.000000 0.000000 -0.000000 0.000000 4.228318 -0.000000 0.000000 0.000000 -0.000000 0.000000 0.000000 0.000000 0.000000 0.000000
-19.198634 70.656874 364.283374 -0.059642 -0.056114 -4.215692 0.055355 0.060347 4.215633 -0.000000 0.000000 0.000000 -0.000000 0.000000 0.000000 0.000000 0.000000 0.000000 -0.000000 0.000000 0.000000 -0.000000 0.000000 0.000000 -1.609794 -0.224311 0.154716 4.338598 2.015409 -0.556715 0.000000 0.000000 0.000000 0.000000 0.000000 0.000000 -0.000000 0.000000 0.000000 -0.000000 0.000000 0.000000 2.823893 -2.878348 -2.126966 -2.932157 2.767977 2.268783 0.000000 0.000000 0.000000 0.000000 0.000000 0.000000 0.055355 0.060347 4.215633 -0.000000 0.000000 0.000000 -0.262310 2.240734 -0.484570 0.000000 0.000000 0.000000 0.055355 0.060347 4.215633 -0.000000 0.000000 0.000000 -0.000000 0.000000 0.000000 0.000000 0.000000 0.000000
-19.155458 70.652763 364.252940 -0.110940 -0.115342 -4.224940 0.102141 0.123202 4.224718 -0.000000 0.000000 0.000000 -0.000000 0.000000 0.000000 0.000000 0.000000 0.000000 -0.000000 0.000000 0.000000 -0.000000 0.000000 0.000000 -2.865661 -0.282654 0.393919 7.567440 3.324549 -1.133295 0.000000 0.000000 0.000000 0.000000 0.000000 0.000000 -0.000000 0.000000 0.000000 -0.749748 0.868301 0.362868 5.750739 -6.053533 -4.088999 -4.621780 5.314209 3.783143 0.000000 0.000000 0.000000 0.000000 0.000000 0.000000 0.102141 0.123202 4.224718 -0.000000 0.000000 0.000000 -0.400344 4.087528 -0.917377 0.000000 0.000000 0.000000 0.102141 0.123202 4.224718 -0.000000 0.000000 0.000000 -0.000000 0.000000 0.000000 0.000000 0.000000 0.000000
-19.115390 70.650590 364.217444 -0.153899 -0.177687 -4.256041 0.140289 0.188618 4.255571 -0.000000 0.000000 0.000000 -0.000000 0.000000 0.000000 0.000000 0.000000 0.000000 0.932235 0.061594 -0.114007 -0.932111 -0.063441 0.112990 -3.750916 -0.173218 0.721918 9.828095 4.045893 -1.682847 0.000000 0.000000 0.000000 0.000000 0.000000 0.000000 -0.000000 0.000000 0.000000 -1.143789 1.369149 0.559382 7.805953 -8.286328 -5.523309 -6.602029 6.996786 5.480490 0.000000 0.000000 0.000000 0.000000 0.000000 0.000000 0.140289 0.188618 4.255571 -0.000000 0.000000 0.000000 -0.417607 5.520255 -1.302419 0.000000 0.000000 0.000000 0.140289 0.188618 4.255571 -0.000000 0.000000 0.000000 -0.000000 0.000000 0.000000 0.000000 0.000000 0.000000
-19.078430 70.650356 364.176886 -0.188526 -0.243150 -4.308972 0.169726 0.256627 4.308191 -0.000000 0.000000 0.000000 0.125686 0.870007 0.086675 0.000000 0.000000 0.000000 1.111367 0.058146 -0.135174 -1.111227 -0.060756 0.134021 -4.258501 0.103829 1.138037 11.205167 4.261432 -2.183487 0.000000 0.000000 0.000000 0.000000 0.000000 0.000000 -0.000000 0.000000 0.000000 -1.549097 1.911867 0.765778 9.440926 -10.049147 -6.663876 -8.401207 8.157541 7.072218 0.000000 0.000000 0.000000 0.000000 0.000000 0.000000 0.169726 0.256627 4.308191 -0.000000 0.000000 0.000000 -0.317799 6.525361 -1.641815 0.000000 0.000000 0.000000 0.169726 0.256627 4.308191 -0.000000 0.000000 0.000000 -0.000000 0.000000 0.000000 0.000000 0.000000 0.000000
-19.044578 70.652061 364.131266 -0.214822 -0.311736 -4.383707 0.190369 0.327242 4.382579 -0.000000 0.000000 0.000000 0.053538 0.995177 0.088290 0.000000 0.000000 0.000000 1.229618 0.043292 -0.148418 -1.229502 -0.046466 0.147455 -4.390134 0.546659 1.636596 11.744054 4.026733 -2.628242 0.000000 0.000000 0.000000 0.000000 0.000000 0.000000 -0.000000 0.000000 0.000000 -1.964419 2.494045 0.981822 10.732497 -11.403260 -7.573307 -10.077753 8.882786 8.595731 0.000000 0.000000 0.000000 0.000000 0.000000 0.000000 0.190369 0.327242 4.382579 -0.000000 0.000000 0.000000 -0.104603 7.093745 -1.935519 0.000000 0.000000 0.000000 -0.054163 -0.505775 4.391904 0.307630 0.811839 -0.011885 -0.000000 0.000000 0.000000 0.000000 0.000000 0.000000
-18.999103 70.649585 364.061016 -0.208010 -0.349134 -4.326394 0.181083 0.363829 4.325185 -0.000000 0.000000 0.000000 0.184277 1.105696 0.112743 0.000000 0.000000 0.000000 1.299137 0.147523 -0.162764 -1.298717 -0.151175 0.159378 -4.660529 2.389904 3.643029 11.612185 0.772448 -4.535248 0.000000 0.000000 0.000000 0.000000 0.000000 0.000000 -0.000000 0.000000 0.000000 -2.508550 3.862038 1.304168 11.619366 -14.238088 -7.235964 -11.976951 9.693185 9.607199 0.000000 0.000000 0.000000 0.000000 0.000000 0.000000 0.181083 0.363829 4.325185 -0.000000 0.000000 0.000000 0.578552 7.949582 -2.618057 0.000000 0.000000 0.000000 -0.144705 -0.546405 4.381594 0.394414 0.882672 -0.059966 -0.000000 0.000000 0.000000 0.000000 0.000000 0.000000
-18.982379 70.650654 363.899711 -0.213673 -0.245410 -3.712692 0.197335 0.258730 3.711789 -0.000000 0.000000 0.000000 0.250482 1.155859 0.124564 0.000000 0.000000 0.000000 1.203284 0.063032 -0.146414 -1.203120 -0.066093 0.145058 -3.845476 2.468502 3.485291 9.408632 -0.416762 -4.425757 0.000000 0.000000 0.000000 0.000000 0.000000 0.000000 -0.000000 0.000000 0.000000 -2.999482 4.195427 1.549672 12.019516 -13.055112 -8.265794 -10.730541 10.971998 9.541393 0.000000 0.000000 0.000000 0.000000 0.000000 0.000000 0.197335 0.258730 3.711789 -0.000000 0.000000 0.000000 1.130840 8.026902 -3.004725 0.000000 0.000000 0.000000 -0.304488 -0.819411 3.859699 0.573345 1.041879 -0.155579 -0.000000 0.000000 0.000000 0.000000 0.000000 0.000000
-18.926267 70.648394 363.846895 -0.155910 -0.344514 -3.585340 0.134064 0.353588 3.584458 -0.000000 0.000000 0.000000 0.713348 0.854852 0.155883 0.000000 0.000000 0.000000 0.969538 -0.098955 -0.109569 -0.522075 0.800341 0.277367 -4.439536 1.536104 3.055145 10.464711 3.910844 -2.649717 0.000000 0.000000 0.000000 0.000000 0.000000 0.000000 -0.000000 0.000000 0.000000 -3.902401 3.889853 1.946714 12.337252 -12.619594 -8.112221 -14.440793 10.634179 12.237957 0.000000 0.000000 0.000000 0.000000 0.000000 0.000000 -0.076296 -0.583230 3.687402 0.270202 0.921345 -0.105538 1.336442 7.573240 -3.014670 0.000000 0.000000 0.000000 -1.226499 -0.243886 4.534867 1.403574 0.487968 -0.955083 -0.000000 0.000000 0.000000 0.000000 0.000000 0.000000
-18.662309 70.693290 364.034248 0.288587 -0.861781 -4.735743 -0.358786 0.834999 4.740528 -0.000000 0.000000 0.000000 -0.590638 0.680127 -0.015788 0.000000 0.000000 0.000000 0.829767 -0.355489 -0.079202 -0.830274 0.354305 0.084343 -0.296555 2.641491 2.648105 4.798268 3.947987 -1.187231 0.000000 0.000000 0.000000 0.000000 0.000000 0.000000 0.075517 -1.068836 -0.125078 -3.810974 3.780705 1.984204 12.991246 -7.873592 -11.312226 -17.166260 5.246288 15.967791 0.000000 0.000000 0.000000 0.000000 0.000000 0.000000 -0.895027 0.212434 4.758741 0.586016 0.575945 -0.016257 -1.651069 2.597804 0.281546 0.000000 0.000000 0.000000 -2.220057 0.591752 6.207375 1.876508 0.040934 -1.444342 -0.000000 0.000000 0.000000 0.000000 0.000000 0.000000
-18.758268 70.753801 364.217252 0.070833 -1.350727 -7.457340 -0.139155 0.292589 7.462942 -0.046332 -0.255440 0.000494 -2.913074 1.933002 -0.249240 0.000000 0.000000 0.000000 0.863590 0.859460 -0.092279 -0.487384 -1.808674 -1.199917 2.209453 4.089875 2.266700 2.445406 6.486263 0.634713 0.000000 0.000000 0.000000 0.000000 0.000000 0.000000 -0.634520 -1.090638 -0.273197 -2.453507 4.461457 1.870500 14.962620 -4.504044 -16.048364 -20.110648 -0.963687 20.375745 0.000000 0.000000 0.000000 0.000000 0.000000 0.000000 -0.245593 1.330103 7.461026 -0.000000 0.000000 0.000000 -1.175308 2.358666 0.051567 0.000000 0.000000 0.000000 -0.245593 1.330103 7.461026 -0.000000 0.000000 0.000000 0.726077 -0.224203 -2.620727 0.000000 0.000000 0.000000
-19.396776 71.083121 364.099095 -0.956457 -1.491362 -10.509637 0.494584 0.026611 10.479261 -0.377283 -0.523480 -0.043155 -5.176493 2.559239 -0.444993 0.000000 0.000000 0.000000 1.247036 0.276883 0.068439 2.379518 -1.055679 -2.666440 0.955573 2.795658 1.530409 2.605696 8.762882 1.848521 0.000000 0.000000 0.000000 0.000000 0.000000 0.000000 -0.328679 -0.937065 -0.285723 -0.202751 5.328941 1.071579 18.381783 -2.133058 -23.733851 -22.718411 -10.432466 26.623592 0.000000 0.000000 0.000000 0.000000 0.000000 0.000000 0.668701 1.640648 10.487613 -0.000000 0.000000 0.000000 2.872783 4.554048 -3.152085 0.000000 0.000000 0.000000 3.984445 2.327539 7.780303 -4.797444 1.353276 1.357060 4.041744 0.599054 -6.803324 0.000000 0.000000 0.000000
-19.810903 71.036728 364.318080 -1.847115 -2.082491 -20.544120 0.810399 0.103186 20.462339 -0.622112 -0.710077 -0.086755 -9.083903 5.222091 -0.341549 0.000000 0.000000 0.000000 1.456902 0.940373 0.204187 5.894533 -3.501225 -5.230801 -0.064163 2.584162 0.979066 1.355817 10.283244 3.452371 0.000000 0.000000 0.000000 0.000000 0.000000 0.000000 -0.860481 -1.246493 -0.348314 2.630976 7.130433 0.411158 19.799124 -4.573252 -26.263475 -24.237670 -12.931132 29.631684 0.000000 0.000000 0.000000 0.000000 0.000000 0.000000 1.752181 1.609390 20.680106 -0.271042 0.288581 -0.172416 7.625377 4.111913 -6.054165 0.000000 0.000000 0.000000 9.451168 8.008651 12.968609 -14.378932 -0.754568 2.237783 8.148123 -3.479617 -7.552099 0.000000 0.000000 0.000000
-20.060228 70.734379 364.788640 -2.629751 -2.938260 -27.478034 0.816362 0.262667 27.329558 -0.816647 -0.809625 -0.132186 -13.908202 9.297269 0.361689 0.000000 0.000000 0.000000 2.876176 2.352818 0.125356 7.408697 -9.686393 -8.505772 -5.517172 2.153314 0.824009 6.038240 11.510758 3.769792 0.000000 0.000000 0.000000 0.000000 0.000000 0.000000 -1.990047 -1.756163 -0.415089 7.788953 9.451254 -1.270067 22.132099 -8.707678 -31.013771 -25.706962 -14.226601 34.727293 0.000000 0.000000 0.000000 0.000000 0.000000 0.000000 0.980772 3.818692 27.377881 0.123613 -1.508900 0.071829 19.934112 14.151750 -18.454954 0.000000 0.000000 0.000000 13.362319 11.172199 15.355329 -22.139869 -1.286347 2.916893 11.392752 -10.565019 -6.722174 0.000000 0.000000 0.000000
